<svg width="189" height="94" viewBox="0 0 189 94" fill="none" xmlns="http://www.w3.org/2000/svg">
<path d="M19.788 41.0474C19.5882 40.7188 19.227 40.4733 18.7045 40.3108C18.5135 40.2458 18.2643 40.2133 17.9569 40.2133C17.6495 40.2133 17.3246 40.3343 16.9821 40.5762C16.6396 40.8145 16.3377 41.1865 16.0764 41.692C15.5165 42.8042 15.2366 44.3715 15.2366 46.3937C15.2366 48.4159 15.5165 49.8315 16.0764 50.6404C16.4606 51.2109 16.97 51.4962 17.6045 51.4962C18.239 51.4962 18.8483 51.3626 19.4323 51.0954L19.4883 46.5833H20.1239V51.702C19.7858 52.0559 19.1743 52.3087 18.2895 52.4604C18.0436 52.5109 17.7845 52.5362 17.5123 52.5362C17.24 52.5362 16.9195 52.464 16.5506 52.3195C16.1818 52.1751 15.8393 51.8808 15.5231 51.4366C14.8096 50.4399 14.4528 48.7788 14.4528 46.4533C14.4528 44.1277 14.7909 42.3294 15.4671 41.0583C16.1434 39.7872 17.015 39.1516 18.082 39.1516L18.4509 39.1895C18.9361 39.2654 19.3072 39.4116 19.564 39.6283C19.8209 39.8413 19.9955 40.0309 20.0877 40.197L19.788 41.0474Z" fill="white"/>
<path d="M21.2634 44.0049C22.1021 43.3224 22.8365 42.9631 23.4666 42.927C23.965 42.927 24.3503 43.0317 24.6226 43.2412C24.897 43.447 25.1188 43.7377 25.2878 44.1133C25.4569 44.4852 25.5414 45.0052 25.5414 45.6733V52.4603H24.7906V51.7399C23.7389 52.2708 23.0626 52.5362 22.7619 52.5362H22.7289C22.0373 52.5362 21.5642 52.1895 21.3095 51.4962C21.2173 51.2434 21.1657 50.996 21.1547 50.7541C21.1437 50.5158 21.1382 50.3135 21.1382 50.1474C21.1382 49.6924 21.2458 49.2862 21.461 48.9287C21.6762 48.5676 21.933 48.3238 22.2316 48.1974C22.7388 47.9808 23.5918 47.7912 24.7906 47.6287V46.0903C24.7906 44.7145 24.3525 44.0266 23.4765 44.0266C22.8618 44.0266 22.1932 44.3227 21.4709 44.9149L21.2634 44.0049ZM21.8397 50.2991C21.8397 51.2091 22.2207 51.6641 22.9825 51.6641C23.5885 51.6641 24.1912 51.4492 24.7906 51.0195V48.3112C23.5918 48.5892 22.8508 48.8041 22.5676 48.9558C22.0823 49.2085 21.8397 49.6563 21.8397 50.2991Z" fill="white"/>
<path d="M28.8381 44.0267C28.4078 44.0628 27.9423 44.2957 27.4417 44.7254V52.4604H26.6941V42.9812L27.4417 42.8892V43.9508C27.9577 43.3044 28.4572 42.9632 28.9402 42.9271C29.7547 42.9271 30.3157 43.2611 30.6231 43.9292C31.2071 43.2972 31.7724 42.9632 32.3191 42.9271C32.7868 42.9271 33.148 43.021 33.4026 43.2087C33.6551 43.4001 33.8637 43.6692 34.0284 44.0158C34.1952 44.3625 34.2787 44.8518 34.2787 45.4837V52.4604H33.5278V45.8087C33.5278 45.3393 33.463 44.9782 33.3335 44.7254C33.0942 44.2596 32.7561 44.0267 32.3191 44.0267C31.8581 44.0267 31.3663 44.2542 30.8437 44.7092C30.881 44.9619 30.8997 45.2201 30.8997 45.4837V52.4604H30.1521V45.8087C30.1521 45.3393 30.0906 44.9782 29.9677 44.7254C29.7218 44.2596 29.3453 44.0267 28.8381 44.0267Z" fill="white"/>
<path d="M36.3534 48.1001C36.3534 50.3245 36.9989 51.4368 38.2899 51.4368C38.8344 51.4368 39.3339 51.3176 39.7884 51.0793C39.9026 51.0143 39.9827 50.9637 40.0288 50.9276L40.2034 51.9297C39.9333 52.1969 39.4448 52.3865 38.7378 52.4984C38.538 52.5237 38.3273 52.5364 38.1055 52.5364C37.46 52.5364 36.9221 52.2709 36.4918 51.7401C35.899 51.0215 35.6026 49.8208 35.6026 48.138C35.6026 46.4589 35.8693 45.1679 36.4028 44.2651C36.9386 43.3587 37.5863 42.9055 38.3459 42.9055C39.1078 42.9055 39.6808 43.31 40.065 44.1189C40.357 44.7652 40.5031 45.6193 40.5031 46.6809C40.5031 46.9337 40.4954 47.1991 40.48 47.4772H36.3633C36.3567 47.5783 36.3534 47.6848 36.3534 47.7968V48.1001ZM38.392 44.0809C37.9156 44.0809 37.5083 44.3193 37.1702 44.7959C36.8321 45.269 36.5983 45.8775 36.4687 46.6214H39.8213C39.784 45.2202 39.4536 44.4059 38.83 44.1784C38.6917 44.1134 38.5457 44.0809 38.392 44.0809Z" fill="white"/>
<path d="M45.285 39.1897H47.3598C48.9735 39.1897 50.0263 40.3019 50.5181 42.5264C50.7025 43.3353 50.7947 44.4005 50.7947 45.7222C50.7947 47.0439 50.7069 48.1561 50.5313 49.0589C50.3534 49.9616 50.1031 50.6658 49.7804 51.1714C49.4576 51.6769 49.0679 52.0182 48.6112 52.1951C48.1546 52.3721 47.6419 52.4605 47.0733 52.4605H45.285V39.1897ZM46.0688 40.2351V51.4205H47.014C47.4136 51.4205 47.7978 51.3628 48.1666 51.2472C49.3962 50.8933 50.0109 49.0173 50.0109 45.6193C50.0109 43.709 49.742 42.2989 49.204 41.3889C48.7364 40.6197 48.103 40.2351 47.3038 40.2351H46.0688Z" fill="white"/>
<path d="M52.4776 48.1001C52.4776 50.3245 53.1231 51.4368 54.4141 51.4368C54.9608 51.4368 55.4603 51.3176 55.9126 51.0793C56.0289 51.0143 56.1102 50.9637 56.1563 50.9276L56.3275 51.9297C56.0597 52.1969 55.5723 52.3865 54.8653 52.4984C54.6655 52.5237 54.4536 52.5364 54.2297 52.5364C53.5842 52.5364 53.0463 52.2709 52.6159 51.7401C52.0253 51.0215 51.73 49.8208 51.73 48.138C51.73 46.4589 51.9968 45.1679 52.5303 44.2651C53.0638 43.3587 53.7115 42.9055 54.4734 42.9055C55.233 42.9055 55.805 43.31 56.1892 44.1189C56.4812 44.7652 56.6272 45.6193 56.6272 46.6809C56.6272 46.9337 56.6195 47.1991 56.6042 47.4772H52.4908C52.482 47.5783 52.4776 47.6848 52.4776 47.7968V48.1001ZM54.5195 44.0809C54.0431 44.0809 53.6358 44.3193 53.2977 44.7959C52.9596 45.269 52.7246 45.8775 52.5929 46.6214H55.9488C55.9093 45.2202 55.5788 44.4059 54.9575 44.1784C54.8192 44.1134 54.6732 44.0809 54.5195 44.0809Z" fill="white"/>
<path d="M57.0784 42.9812L57.9182 42.8892L59.5912 51.0033L61.3993 42.9812L62.2292 42.8892L59.9008 52.4604H59.2092L57.0784 42.9812Z" fill="white"/>
<path d="M63.3127 48.1001C63.3127 50.3245 63.9582 51.4368 65.2492 51.4368C65.7959 51.4368 66.2953 51.3176 66.7476 51.0793C66.864 51.0143 66.9452 50.9637 66.9913 50.9276L67.1626 51.9297C66.8947 52.1969 66.4073 52.3865 65.7003 52.4984C65.5006 52.5237 65.2887 52.5364 65.0647 52.5364C64.4192 52.5364 63.8813 52.2709 63.451 51.7401C62.8604 51.0215 62.5651 49.8208 62.5651 48.138C62.5651 46.4589 62.8319 45.1679 63.3654 44.2651C63.8989 43.3587 64.5466 42.9055 65.3084 42.9055C66.0681 42.9055 66.64 43.31 67.0243 44.1189C67.3163 44.7652 67.4623 45.6193 67.4623 46.6809C67.4623 46.9337 67.4546 47.1991 67.4392 47.4772H63.3259C63.3171 47.5783 63.3127 47.6848 63.3127 47.7968V48.1001ZM65.3545 44.0809C64.8781 44.0809 64.4708 44.3193 64.1327 44.7959C63.7946 45.269 63.5597 45.8775 63.4279 46.6214H66.7839C66.7443 45.2202 66.4139 44.4059 65.7926 44.1784C65.6542 44.1134 65.5082 44.0809 65.3545 44.0809Z" fill="white"/>
<path d="M68.5688 52.4604V38.3392L69.3197 38.2417V52.4604H68.5688Z" fill="white"/>
<path d="M70.5745 50.0339C70.4362 49.4272 70.367 48.7194 70.367 47.9105C70.367 46.3577 70.6327 45.1354 71.164 44.2434C71.6931 43.3515 72.3573 42.9055 73.1565 42.9055C74.4101 42.9055 75.2324 43.7397 75.6232 45.408C75.7703 46.0147 75.8438 46.7225 75.8438 47.5314C75.8438 49.0877 75.5782 50.3119 75.0468 51.2039C74.5177 52.0922 73.8535 52.5364 73.0544 52.5364C71.8007 52.5364 70.9741 51.7022 70.5745 50.0339ZM71.1179 47.7805V48.6526C71.1179 49.234 71.3001 49.8443 71.6646 50.4834C72.029 51.119 72.5 51.4368 73.0774 51.4368C73.6527 51.4368 74.1324 51.0991 74.5166 50.4239C74.9008 49.7486 75.0929 48.8295 75.0929 47.6668C75.0929 46.504 74.9129 45.603 74.5528 44.9639C74.1906 44.3247 73.7196 44.0051 73.14 44.0051C72.5604 44.0051 72.0784 44.3445 71.6942 45.0234C71.31 45.6987 71.1179 46.6177 71.1179 47.7805Z" fill="white"/>
<path d="M80.6488 51.1335C80.3963 51.5524 80.1142 51.8665 79.8024 52.076C79.4906 52.2818 79.2239 52.3974 79.0021 52.4226C78.7782 52.4479 78.5586 52.4606 78.3434 52.4606C78.1283 52.4606 77.8945 52.4299 77.642 52.3685V57.1081L76.8911 57.2001V43.4743C77.0601 43.3876 77.3192 43.2558 77.6683 43.0789C78.0196 42.9019 78.3928 42.8135 78.788 42.8135C79.1832 42.8135 79.5247 42.8676 79.8123 42.976C80.1021 43.0807 80.3699 43.2847 80.6158 43.5881C81.1911 44.3211 81.4787 45.5344 81.4787 47.2281C81.4787 48.9217 81.2021 50.2235 80.6488 51.1335ZM77.642 51.3989C77.8725 51.4892 78.1184 51.5343 78.3797 51.5343C79.1327 51.5343 79.7124 51.1678 80.1185 50.4347C80.5269 49.7017 80.7311 48.6707 80.7311 47.3418C80.7311 46.0165 80.5236 45.0686 80.1087 44.4981C79.8167 44.1081 79.4412 43.9131 78.9823 43.9131C78.5257 43.9131 78.0789 44.0196 77.642 44.2326V51.3989Z" fill="white"/>
<path d="M84.4427 44.0267C84.0124 44.0628 83.5469 44.2957 83.0464 44.7254V52.4604H82.2988V42.9812L83.0464 42.8892V43.9508C83.5623 43.3044 84.0618 42.9632 84.5448 42.9271C85.3594 42.9271 85.9203 43.2611 86.2277 43.9292C86.8117 43.2972 87.3771 42.9632 87.9238 42.9271C88.3914 42.9271 88.7526 43.021 89.0073 43.2087C89.2598 43.4001 89.4684 43.6692 89.633 44.0158C89.7999 44.3625 89.8833 44.8518 89.8833 45.4837V52.4604H89.1324V45.8087C89.1324 45.3393 89.0677 44.9782 88.9381 44.7254C88.6988 44.2596 88.3607 44.0267 87.9238 44.0267C87.4627 44.0267 86.9709 44.2542 86.4484 44.7092C86.4857 44.9619 86.5044 45.2201 86.5044 45.4837V52.4604H85.7568V45.8087C85.7568 45.3393 85.6953 44.9782 85.5723 44.7254C85.3264 44.2596 84.9499 44.0267 84.4427 44.0267Z" fill="white"/>
<path d="M91.9581 48.1001C91.9581 50.3245 92.6036 51.4368 93.8946 51.4368C94.4391 51.4368 94.9386 51.3176 95.393 51.0793C95.5072 51.0143 95.5873 50.9637 95.6335 50.9276L95.808 51.9297C95.5379 52.1969 95.0494 52.3865 94.3425 52.4984C94.1427 52.5237 93.9319 52.5364 93.7101 52.5364C93.0647 52.5364 92.5267 52.2709 92.0964 51.7401C91.5036 51.0215 91.2072 49.8208 91.2072 48.138C91.2072 46.4589 91.474 45.1679 92.0075 44.2651C92.5432 43.3587 93.1909 42.9055 93.9506 42.9055C94.7124 42.9055 95.2855 43.31 95.6697 44.1189C95.9617 44.7652 96.1077 45.6193 96.1077 46.6809C96.1077 46.9337 96.1 47.1991 96.0846 47.4772H91.968C91.9614 47.5783 91.9581 47.6848 91.9581 47.7968V48.1001ZM93.9967 44.0809C93.5202 44.0809 93.113 44.3193 92.7748 44.7959C92.4367 45.269 92.2029 45.8775 92.0734 46.6214H95.426C95.3886 45.2202 95.0582 44.4059 94.4347 44.1784C94.2964 44.1134 94.1504 44.0809 93.9967 44.0809Z" fill="white"/>
<path d="M97.8466 44.0267C98.424 43.3297 98.9696 42.9632 99.4834 42.9271C99.9532 42.9271 100.314 43.021 100.567 43.2087C100.822 43.4001 101.031 43.6692 101.196 44.0158C101.361 44.3625 101.443 44.8518 101.443 45.4837V52.4604H100.695V45.8087C100.695 45.3393 100.634 44.9782 100.511 44.7254C100.265 44.2596 99.8885 44.0267 99.3813 44.0267C98.8961 44.0628 98.3845 44.321 97.8466 44.8012V52.4604H97.099V42.9812L97.8466 42.8892V44.0267Z" fill="white"/>
<path d="M105.467 52.1192C105.329 52.3467 105.079 52.4605 104.716 52.4605C104.209 52.4605 103.868 52.2456 103.692 51.8159C103.391 51.3501 103.241 50.7181 103.241 49.9201V44.0809H102.596L102.701 42.9813H103.241V41.1072L103.992 40.9934V42.9813H105.329V44.0809H103.992V50.2234C103.992 50.9565 104.222 51.323 104.684 51.323C104.883 51.323 105.099 51.2472 105.329 51.0955L105.467 52.1192Z" fill="white"/>
<path d="M114.791 42.7539C114.791 44.5739 114.411 45.7944 113.651 46.4155L115.39 52.4605H114.55L112.914 46.8109C112.637 46.8868 112.333 46.9247 112.001 46.9247H111.115V52.4605H110.332V39.1897H112.001C112.939 39.1897 113.623 39.4298 114.053 39.9101C114.545 40.4554 114.791 41.4033 114.791 42.7539ZM111.115 40.2351V45.8847H111.945C112.628 45.8847 113.143 45.6572 113.49 45.2022C113.835 44.7472 114.007 43.9564 114.007 42.8297C114.007 41.3889 113.607 40.5547 112.808 40.3272C112.556 40.2658 112.268 40.2351 111.945 40.2351H111.115Z" fill="white"/>
<path d="M116.635 48.1001C116.635 50.3245 117.281 51.4368 118.572 51.4368C119.118 51.4368 119.618 51.3176 120.07 51.0793C120.186 51.0143 120.268 50.9637 120.314 50.9276L120.485 51.9297C120.217 52.1969 119.73 52.3865 119.023 52.4984C118.823 52.5237 118.611 52.5364 118.387 52.5364C117.742 52.5364 117.204 52.2709 116.773 51.7401C116.183 51.0215 115.887 49.8208 115.887 48.138C115.887 46.4589 116.154 45.1679 116.688 44.2651C117.221 43.3587 117.869 42.9055 118.631 42.9055C119.39 42.9055 119.962 43.31 120.347 44.1189C120.639 44.7652 120.785 45.6193 120.785 46.6809C120.785 46.9337 120.777 47.1991 120.762 47.4772H116.648C116.639 47.5783 116.635 47.6848 116.635 47.7968V48.1001ZM118.677 44.0809C118.2 44.0809 117.793 44.3193 117.455 44.7959C117.117 45.269 116.882 45.8775 116.75 46.6214H120.106C120.067 45.2202 119.736 44.4059 119.115 44.1784C118.977 44.1134 118.831 44.0809 118.677 44.0809Z" fill="white"/>
<path d="M125.165 44.2326C124.888 44.0809 124.512 44.0051 124.035 44.0051C123.559 44.0051 123.19 44.1441 122.929 44.4222C122.667 44.7002 122.537 45.0451 122.537 45.4568C122.537 45.8684 122.614 46.1682 122.767 46.3559C122.921 46.5473 123.113 46.7098 123.344 46.8434C123.574 46.9734 123.825 47.1016 124.098 47.228C124.372 47.3544 124.625 47.5187 124.855 47.7209C125.393 48.1759 125.662 48.853 125.662 49.7522C125.662 50.6477 125.475 51.3357 125.102 51.8159C124.729 52.2962 124.186 52.5364 123.472 52.5364C123.11 52.5364 122.762 52.4768 122.428 52.3576C122.094 52.2384 121.839 52.0705 121.661 51.8539L121.914 50.8518C122.092 51.1045 122.45 51.2869 122.988 51.3989C123.157 51.4386 123.329 51.4584 123.505 51.4584C123.905 51.4584 124.239 51.323 124.509 51.0522C124.777 50.7777 124.911 50.3625 124.911 49.8064C124.911 49.4272 124.834 49.1311 124.681 48.918C124.527 48.7014 124.335 48.5208 124.104 48.3764C123.874 48.2319 123.622 48.1019 123.35 47.9864C123.078 47.8744 122.827 47.7264 122.596 47.5422C122.365 47.358 122.173 47.1179 122.02 46.8218C121.866 46.5257 121.789 46.1248 121.789 45.6193C121.789 44.7959 121.981 44.1387 122.365 43.6476C122.75 43.1529 123.265 42.9055 123.91 42.9055C124.07 42.9055 124.235 42.9218 124.404 42.9543C124.573 42.9868 124.727 43.0157 124.865 43.0409L125.349 43.1709L125.165 44.2326Z" fill="white"/>
<path d="M126.617 50.0339C126.479 49.4272 126.41 48.7194 126.41 47.9105C126.41 46.3577 126.675 45.1354 127.207 44.2434C127.736 43.3515 128.4 42.9055 129.199 42.9055C130.453 42.9055 131.275 43.7397 131.666 45.408C131.813 46.0147 131.886 46.7225 131.886 47.5314C131.886 49.0877 131.621 50.3119 131.089 51.2039C130.56 52.0922 129.896 52.5364 129.097 52.5364C127.843 52.5364 127.017 51.7022 126.617 50.0339ZM127.161 47.7805V48.6526C127.161 49.234 127.343 49.8443 127.707 50.4834C128.072 51.119 128.543 51.4368 129.12 51.4368C129.695 51.4368 130.175 51.0991 130.559 50.4239C130.943 49.7486 131.136 48.8295 131.136 47.6668C131.136 46.504 130.956 45.603 130.595 44.9639C130.233 44.3247 129.762 44.0051 129.183 44.0051C128.603 44.0051 128.121 44.3445 127.737 45.0234C127.353 45.6987 127.161 46.6177 127.161 47.7805Z" fill="white"/>
<path d="M134.238 51.2471C134.407 51.3482 134.676 51.3987 135.045 51.3987C135.414 51.3987 135.89 51.1532 136.474 50.6621V42.9812L137.222 42.8892V52.4604H136.474V51.4367C135.905 52.1589 135.325 52.52 134.732 52.52C133.994 52.52 133.461 52.1589 133.131 51.4367C132.962 51.0828 132.878 50.5899 132.878 49.9579V42.9812L133.625 42.8892V49.6383C133.625 50.4219 133.83 50.9582 134.238 51.2471Z" fill="white"/>
<path d="M141.73 44.3083C141.607 44.1964 141.477 44.1404 141.338 44.1404C141.2 44.1404 141.123 44.1458 141.108 44.1567C140.816 44.1567 140.522 44.3318 140.225 44.6821C139.929 45.0287 139.677 45.4169 139.471 45.8467V52.4604H138.72V42.9812L139.471 42.8892V45.0125C139.754 44.4167 139.996 43.9996 140.196 43.7612C140.564 43.3062 140.918 43.0661 141.256 43.0408C141.302 43.0264 141.387 43.0192 141.51 43.0192C141.633 43.0192 141.806 43.0697 142.03 43.1708L141.73 44.3083Z" fill="white"/>
<path d="M145.913 44.2542C145.599 44.088 145.276 44.005 144.945 44.005C144.277 44.005 143.741 44.3589 143.337 45.0667C142.933 45.7744 142.731 46.7729 142.731 48.0621C142.731 50.3118 143.366 51.4367 144.635 51.4367C145.142 51.4367 145.665 51.2976 146.203 51.0196C146.31 50.969 146.375 50.9311 146.397 50.9058L146.581 51.9296C146.313 52.1968 145.826 52.3864 145.119 52.4983C144.919 52.5236 144.707 52.5362 144.483 52.5362C143.831 52.5362 143.293 52.2708 142.87 51.74C142.279 51.0069 141.984 49.8008 141.984 48.1217C141.984 46.4389 142.258 45.1461 142.807 44.2433C143.356 43.3405 144.065 42.8892 144.935 42.8892C145.211 42.8892 145.504 42.9487 145.814 43.0679C146.126 43.1871 146.366 43.373 146.535 43.6258V46.1121L145.972 46.2421L145.913 44.2542Z" fill="white"/>
<path d="M148.231 48.1001C148.231 50.3245 148.877 51.4368 150.168 51.4368C150.712 51.4368 151.212 51.3176 151.666 51.0793C151.78 51.0143 151.861 50.9637 151.907 50.9276L152.081 51.9297C151.811 52.1969 151.323 52.3865 150.616 52.4984C150.416 52.5237 150.205 52.5364 149.983 52.5364C149.338 52.5364 148.8 52.2709 148.37 51.7401C147.777 51.0215 147.48 49.8208 147.48 48.138C147.48 46.4589 147.747 45.1679 148.281 44.2651C148.816 43.3587 149.464 42.9055 150.224 42.9055C150.986 42.9055 151.559 43.31 151.943 44.1189C152.235 44.7652 152.381 45.6193 152.381 46.6809C152.381 46.9337 152.373 47.1991 152.358 47.4772H148.241C148.235 47.5783 148.231 47.6848 148.231 47.7968V48.1001ZM150.27 44.0809C149.793 44.0809 149.386 44.3193 149.048 44.7959C148.71 45.269 148.476 45.8775 148.347 46.6214H151.699C151.662 45.2202 151.331 44.4059 150.708 44.1784C150.57 44.1134 150.424 44.0809 150.27 44.0809Z" fill="white"/>
<path d="M157.107 52.4605V39.1897H157.831V45.3159H161.75V39.1897H162.478V52.4605H161.75V46.4534H157.831V52.4605H157.107Z" fill="white"/>
<path d="M165.116 51.2471C165.285 51.3482 165.554 51.3987 165.923 51.3987C166.292 51.3987 166.768 51.1532 167.352 50.6621V42.9812L168.103 42.8892V52.4604H167.352V51.4367C166.784 52.1589 166.204 52.52 165.613 52.52C164.876 52.52 164.341 52.1589 164.01 51.4367C163.841 51.0828 163.756 50.5899 163.756 49.9579V42.9812L164.507 42.8892V49.6383C164.507 50.4219 164.71 50.9582 165.116 51.2471Z" fill="white"/>
<path d="M170.349 43.7396C170.804 43.1221 171.319 42.8134 171.894 42.8134C172.877 42.8134 173.566 43.5266 173.959 44.9529C174.112 45.5343 174.189 46.2873 174.189 47.2117C174.189 48.9161 173.916 50.2179 173.369 51.1171C172.825 52.0127 172.118 52.4604 171.248 52.4604C170.741 52.4604 170.355 52.4045 170.089 52.2925C169.826 52.177 169.663 52.0885 169.602 52.0271V38.3392L170.349 38.2417V43.7396ZM170.349 44.4059V51.3988C170.573 51.4891 170.816 51.5342 171.077 51.5342C171.846 51.5342 172.431 51.1677 172.832 50.4346C173.236 49.7016 173.438 48.6706 173.438 47.3417C173.438 46.0164 173.235 45.0685 172.829 44.4979C172.544 44.1079 172.175 43.9129 171.723 43.9129C171.268 43.9129 170.81 44.0773 170.349 44.4059Z" fill="white"/>
<path d="M180.039 1.0752H1.99316V81.286H180.039V1.0752Z" stroke="white" stroke-width="0.611596"/>
<path d="M186.052 11.8813H8.00677V92.0921H186.052V11.8813Z" stroke="white" stroke-width="0.611596"/>
</svg>
